<svg width="162" height="55" viewBox="0 0 162 55" fill="none" xmlns="http://www.w3.org/2000/svg">
<circle cx="20" cy="27" r="18.5" stroke="#000000" stroke-width="3"/>
<path d="M20 16.3333L22.6667 21V47H20V16.3333Z" fill="#000000"/>
<path d="M20 16.3333L17.3333 21V47H20V16.3333Z" fill="#000000"/>
<path d="M65.64 41.32C64.8133 41.32 64.1733 41.0933 63.72 40.64C63.2933 40.16 63.08 39.5067 63.08 38.68V15.12C63.08 14.2667 63.2933 13.6133 63.72 13.16C64.1733 12.7067 64.8133 12.48 65.64 12.48C66.4667 12.48 67.0933 12.7067 67.52 13.16C67.9733 13.6133 68.2 14.2667 68.2 15.12V38.68C68.2 39.5067 67.9867 40.16 67.56 40.64C67.1333 41.0933 66.4933 41.32 65.64 41.32ZM76.3691 41.32C75.5691 41.32 74.9557 41.1067 74.5291 40.68C74.1024 40.2267 73.8891 39.5867 73.8891 38.76V23.64C73.8891 22.8133 74.1024 22.1867 74.5291 21.76C74.9557 21.3333 75.5557 21.12 76.3291 21.12C77.1024 21.12 77.7024 21.3333 78.1291 21.76C78.5557 22.1867 78.7691 22.8133 78.7691 23.64V26.36L78.3291 25.36C78.9157 23.9467 79.8224 22.88 81.0491 22.16C82.3024 21.4133 83.7157 21.04 85.2891 21.04C86.8624 21.04 88.1557 21.3333 89.1691 21.92C90.1824 22.5067 90.9424 23.4 91.4491 24.6C91.9557 25.7733 92.2091 27.2667 92.2091 29.08V38.76C92.2091 39.5867 91.9957 40.2267 91.5691 40.68C91.1424 41.1067 90.5291 41.32 89.7291 41.32C88.9291 41.32 88.3024 41.1067 87.8491 40.68C87.4224 40.2267 87.2091 39.5867 87.2091 38.76V29.32C87.2091 27.8 86.9157 26.6933 86.3291 26C85.7691 25.3067 84.8891 24.96 83.6891 24.96C82.2224 24.96 81.0491 25.4267 80.1691 26.36C79.3157 27.2667 78.8891 28.48 78.8891 30V38.76C78.8891 40.4667 78.0491 41.32 76.3691 41.32ZM99.7675 41.32C98.9675 41.32 98.3542 41.1067 97.9275 40.68C97.5008 40.2267 97.2875 39.5867 97.2875 38.76V15C97.2875 14.1733 97.5008 13.5467 97.9275 13.12C98.3542 12.6933 98.9675 12.48 99.7675 12.48C100.568 12.48 101.181 12.6933 101.608 13.12C102.061 13.5467 102.288 14.1733 102.288 15V29.76H102.368L108.968 22.8C109.501 22.2667 109.968 21.8533 110.368 21.56C110.768 21.2667 111.314 21.12 112.008 21.12C112.701 21.12 113.221 21.3067 113.568 21.68C113.941 22.0267 114.128 22.4533 114.128 22.96C114.128 23.4667 113.888 23.9733 113.408 24.48L106.447 31.84V29.76L114.088 38C114.568 38.5067 114.781 39.0267 114.728 39.56C114.701 40.0667 114.488 40.4933 114.088 40.84C113.688 41.16 113.181 41.32 112.568 41.32C111.821 41.32 111.221 41.1733 110.768 40.88C110.341 40.5867 109.861 40.1467 109.328 39.56L102.368 32.28H102.288V38.76C102.288 40.4667 101.448 41.32 99.7675 41.32ZM127.982 41.4C125.769 41.4 123.862 40.9867 122.262 40.16C120.662 39.3333 119.422 38.16 118.542 36.64C117.689 35.12 117.262 33.32 117.262 31.24C117.262 29.2133 117.676 27.44 118.502 25.92C119.356 24.4 120.516 23.2133 121.982 22.36C123.476 21.48 125.169 21.04 127.062 21.04C128.449 21.04 129.689 21.2667 130.782 21.72C131.902 22.1733 132.849 22.8267 133.622 23.68C134.422 24.5333 135.022 25.5733 135.422 26.8C135.849 28 136.062 29.36 136.062 30.88C136.062 31.36 135.889 31.7333 135.542 32C135.222 32.24 134.756 32.36 134.142 32.36H121.302V29.48H132.542L131.902 30.08C131.902 28.8533 131.716 27.8267 131.342 27C130.996 26.1733 130.476 25.5467 129.782 25.12C129.116 24.6667 128.276 24.44 127.262 24.44C126.142 24.44 125.182 24.7067 124.382 25.24C123.609 25.7467 123.009 26.48 122.582 27.44C122.182 28.3733 121.982 29.4933 121.982 30.8V31.08C121.982 33.2667 122.489 34.9067 123.502 36C124.542 37.0667 126.062 37.6 128.062 37.6C128.756 37.6 129.529 37.52 130.382 37.36C131.262 37.1733 132.089 36.8667 132.862 36.44C133.422 36.12 133.916 35.9867 134.342 36.04C134.769 36.0667 135.102 36.2133 135.342 36.48C135.609 36.7467 135.769 37.08 135.822 37.48C135.876 37.8533 135.796 38.24 135.582 38.64C135.396 39.04 135.062 39.3867 134.582 39.68C133.649 40.2667 132.569 40.7067 131.342 41C130.142 41.2667 129.022 41.4 127.982 41.4ZM147.542 41.4C145.835 41.4 144.329 40.9867 143.022 40.16C141.742 39.3333 140.742 38.16 140.022 36.64C139.302 35.0933 138.942 33.28 138.942 31.2C138.942 29.0933 139.302 27.2933 140.022 25.8C140.742 24.28 141.742 23.1067 143.022 22.28C144.329 21.4533 145.835 21.04 147.542 21.04C149.169 21.04 150.582 21.44 151.782 22.24C153.009 23.04 153.835 24.0933 154.262 25.4H153.822V15C153.822 14.1733 154.035 13.5467 154.462 13.12C154.889 12.6933 155.502 12.48 156.302 12.48C157.102 12.48 157.715 12.6933 158.142 13.12C158.595 13.5467 158.822 14.1733 158.822 15V38.76C158.822 39.5867 158.609 40.2267 158.182 40.68C157.755 41.1067 157.142 41.32 156.342 41.32C155.542 41.32 154.929 41.1067 154.502 40.68C154.075 40.2267 153.862 39.5867 153.862 38.76V35.64L154.302 36.84C153.902 38.2267 153.089 39.3333 151.862 40.16C150.635 40.9867 149.195 41.4 147.542 41.4ZM148.942 37.6C149.929 37.6 150.795 37.36 151.542 36.88C152.289 36.4 152.862 35.6933 153.262 34.76C153.689 33.8 153.902 32.6133 153.902 31.2C153.902 29.0667 153.449 27.48 152.542 26.44C151.635 25.3733 150.435 24.84 148.942 24.84C147.955 24.84 147.089 25.08 146.342 25.56C145.595 26.0133 145.009 26.72 144.582 27.68C144.182 28.6133 143.982 29.7867 143.982 31.2C143.982 33.3067 144.435 34.9067 145.342 36C146.249 37.0667 147.449 37.6 148.942 37.6Z" fill="#000000"/>
</svg>
